<svg xmlns="http://www.w3.org/2000/svg" width="36" height="36" viewBox="0 0 36 36">
  <metadata><?xpacket begin="﻿" id="W5M0MpCehiHzreSzNTczkc9d"?>
<x:xmpmeta xmlns:x="adobe:ns:meta/" x:xmptk="Adobe XMP Core 5.6-c142 79.160924, 2017/07/13-01:06:39        ">
   <rdf:RDF xmlns:rdf="http://www.w3.org/1999/02/22-rdf-syntax-ns#">
      <rdf:Description rdf:about=""/>
   </rdf:RDF>
</x:xmpmeta>
                                                                                                    
                                                                                                    
                                                                                                    
                                                                                                    
                                                                                                    
                                                                                                    
                                                                                                    
                                                                                                    
                                                                                                    
                                                                                                    
                                                                                                    
                                                                                                    
                                                                                                    
                                                                                                    
                                                                                                    
                                                                                                    
                                                                                                    
                                                                                                    
                                                                                                    
                                                                                                    
                           
<?xpacket end="w"?></metadata>
<defs>
    <style>
      .cls-1 {
        fill: #fff;
        fill-rule: evenodd;
      }
    </style>
  </defs>
  <path class="cls-1" d="M415.37,931.814a2.523,2.523,0,0,0-3.813,0c-0.891.884-1.783,1.768-2.659,2.667a0.526,0.526,0,0,1-.735.135c-0.576-.315-1.191-0.569-1.745-0.914a27.682,27.682,0,0,1-6.667-6.068,15.759,15.759,0,0,1-2.39-3.828,0.548,0.548,0,0,1,.135-0.7c0.891-.861,1.76-1.746,2.637-2.629a2.532,2.532,0,0,0-.008-3.9c-0.7-.7-1.393-1.394-2.09-2.1-0.719-.719-1.431-1.446-2.157-2.157a2.539,2.539,0,0,0-3.813.007c-0.9.884-1.761,1.791-2.675,2.659a4.347,4.347,0,0,0-1.363,2.93,12.42,12.42,0,0,0,.959,5.341,32.454,32.454,0,0,0,5.761,9.6,35.657,35.657,0,0,0,11.806,9.237,17.079,17.079,0,0,0,6.54,1.9,4.791,4.791,0,0,0,4.112-1.565c0.764-.854,1.626-1.633,2.435-2.45a2.548,2.548,0,0,0,.015-3.88Q417.521,933.945,415.37,931.814Zm-1.431-5.97,2.764-.472a12.408,12.408,0,0,0-10.495-10.181l-0.389,2.78A9.589,9.589,0,0,1,413.939,925.844Zm4.323-12.016A20.387,20.387,0,0,0,406.575,908l-0.389,2.779a17.786,17.786,0,0,1,15.05,14.585l2.764-.471A20.535,20.535,0,0,0,418.262,913.828Z" transform="translate(-388 -908)"/>
</svg>
