<svg xmlns="http://www.w3.org/2000/svg" width="37" height="37" viewBox="0 0 37 37">
  <metadata><?xpacket begin="﻿" id="W5M0MpCehiHzreSzNTczkc9d"?>
<x:xmpmeta xmlns:x="adobe:ns:meta/" x:xmptk="Adobe XMP Core 5.6-c142 79.160924, 2017/07/13-01:06:39        ">
   <rdf:RDF xmlns:rdf="http://www.w3.org/1999/02/22-rdf-syntax-ns#">
      <rdf:Description rdf:about=""/>
   </rdf:RDF>
</x:xmpmeta>
                                                                                                    
                                                                                                    
                                                                                                    
                                                                                                    
                                                                                                    
                                                                                                    
                                                                                                    
                                                                                                    
                                                                                                    
                                                                                                    
                                                                                                    
                                                                                                    
                                                                                                    
                                                                                                    
                                                                                                    
                                                                                                    
                                                                                                    
                                                                                                    
                                                                                                    
                                                                                                    
                           
<?xpacket end="w"?></metadata>
<defs>
    <style>
      .cls-1 {
        fill: #fff;
        fill-rule: evenodd;
      }
    </style>
  </defs>
  <path id="Forma_1" data-name="Forma 1" class="cls-1" d="M408.5,985a18.5,18.5,0,1,0,18.5,18.5A18.5,18.5,0,0,0,408.5,985Zm0.794,35.37v-3.25a0.794,0.794,0,0,0-1.588,0v3.25a16.9,16.9,0,0,1-16.079-16.08h3.254a0.79,0.79,0,1,0,0-1.58h-3.254a16.9,16.9,0,0,1,16.079-16.083v3.254a0.794,0.794,0,0,0,1.588,0v-3.254a16.905,16.905,0,0,1,16.079,16.083h-3.254a0.79,0.79,0,1,0,0,1.58h3.262A16.9,16.9,0,0,1,409.294,1020.37Zm7.579-9.49-7.579-7.71v-8a0.794,0.794,0,1,0-1.588,0v8.333a0.808,0.808,0,0,0,.23.56l7.8,7.93A0.794,0.794,0,0,0,416.873,1010.88Z" transform="translate(-390 -985)"/>
</svg>
