<svg xmlns="http://www.w3.org/2000/svg" xmlns:xlink="http://www.w3.org/1999/xlink" width="47" height="35" viewBox="0 0 47 35">
  <metadata><?xpacket begin="﻿" id="W5M0MpCehiHzreSzNTczkc9d"?>
<x:xmpmeta xmlns:x="adobe:ns:meta/" x:xmptk="Adobe XMP Core 5.6-c142 79.160924, 2017/07/13-01:06:39        ">
   <rdf:RDF xmlns:rdf="http://www.w3.org/1999/02/22-rdf-syntax-ns#">
      <rdf:Description rdf:about=""/>
   </rdf:RDF>
</x:xmpmeta>
                                                                                                    
                                                                                                    
                                                                                                    
                                                                                                    
                                                                                                    
                                                                                                    
                                                                                                    
                                                                                                    
                                                                                                    
                                                                                                    
                                                                                                    
                                                                                                    
                                                                                                    
                                                                                                    
                                                                                                    
                                                                                                    
                                                                                                    
                                                                                                    
                                                                                                    
                                                                                                    
                           
<?xpacket end="w"?></metadata>
<defs>
    <style>
      .cls-1 {
        fill-rule: evenodd;
        filter: url(#filter);
      }
    </style>
    <filter id="filter" x="1351" y="4536" width="47" height="35" filterUnits="userSpaceOnUse">
      <feFlood result="flood" flood-color="#b71010"/>
      <feComposite result="composite" operator="in" in2="SourceGraphic"/>
      <feBlend result="blend" in2="SourceGraphic"/>
    </filter>
  </defs>
  <path id="mail_копия" data-name="mail копия" class="cls-1" d="M1392.26,4536h-35.51a5.692,5.692,0,0,0-5.75,5.62v23.76a5.692,5.692,0,0,0,5.75,5.62h35.5a5.692,5.692,0,0,0,5.75-5.62v-23.75A5.686,5.686,0,0,0,1392.26,4536Zm3.12,29.38a3.09,3.09,0,0,1-3.12,3.05h-35.51a3.09,3.09,0,0,1-3.12-3.05v-23.75a3.09,3.09,0,0,1,3.12-3.05h35.5a3.09,3.09,0,0,1,3.12,3.05v23.75h0.01Zm-14.74-12.18,11.5-10.08a1.275,1.275,0,0,0,.09-1.82,1.351,1.351,0,0,0-1.86-.1l-15.85,13.93-3.09-2.71a0.038,0.038,0,0,1-.02-0.02,1.9,1.9,0,0,0-.21-0.19l-12.59-11.01a1.321,1.321,0,0,0-1.85.1,1.267,1.267,0,0,0,.1,1.82l11.63,10.17-11.58,10.61a1.283,1.283,0,0,0-.06,1.82,1.416,1.416,0,0,0,.97.41,1.317,1.317,0,0,0,.89-0.35l11.76-10.76,3.19,2.79a1.3,1.3,0,0,0,.87.32,1.32,1.32,0,0,0,.88-0.33l3.28-2.87,11.68,10.86a1.329,1.329,0,0,0,1.86-.04,1.265,1.265,0,0,0-.05-1.82Z" transform="translate(-1351 -4536)"/>
</svg>
