<svg xmlns="http://www.w3.org/2000/svg" xmlns:xlink="http://www.w3.org/1999/xlink" width="43" height="45" viewBox="0 0 43 45">
  <metadata><?xpacket begin="﻿" id="W5M0MpCehiHzreSzNTczkc9d"?>
<x:xmpmeta xmlns:x="adobe:ns:meta/" x:xmptk="Adobe XMP Core 5.6-c142 79.160924, 2017/07/13-01:06:39        ">
   <rdf:RDF xmlns:rdf="http://www.w3.org/1999/02/22-rdf-syntax-ns#">
      <rdf:Description rdf:about=""/>
   </rdf:RDF>
</x:xmpmeta>
                                                                                                    
                                                                                                    
                                                                                                    
                                                                                                    
                                                                                                    
                                                                                                    
                                                                                                    
                                                                                                    
                                                                                                    
                                                                                                    
                                                                                                    
                                                                                                    
                                                                                                    
                                                                                                    
                                                                                                    
                                                                                                    
                                                                                                    
                                                                                                    
                                                                                                    
                                                                                                    
                           
<?xpacket end="w"?></metadata>
<defs>
    <style>
      .cls-1 {
        fill-rule: evenodd;
        filter: url(#filter);
      }
    </style>
    <filter id="filter" x="1353" y="4600" width="43" height="45" filterUnits="userSpaceOnUse">
      <feFlood result="flood" flood-color="#b71010"/>
      <feComposite result="composite" operator="in" in2="SourceGraphic"/>
      <feBlend result="blend" in2="SourceGraphic"/>
    </filter>
  </defs>
  <path id="phone_копия_2" data-name="phone копия 2" class="cls-1" d="M1374.5,4602.81c10.37,0,18.81,8.84,18.81,19.69s-8.44,19.69-18.81,19.69-18.81-8.84-18.81-19.69,8.44-19.69,18.81-19.69m0-2.81c-11.87,0-21.5,10.07-21.5,22.5s9.63,22.5,21.5,22.5,21.5-10.07,21.5-22.5-9.63-22.5-21.5-22.5h0Zm11.99,30.02-0.12-.38a3.5,3.5,0,0,0-2.08-2.06l-3.18-.91a3.031,3.031,0,0,0-2.72.75l-1.15,1.2a12.5,12.5,0,0,1-8.59-8.98l1.15-1.21a3.327,3.327,0,0,0,.71-2.84l-0.86-3.33a3.484,3.484,0,0,0-1.97-2.17l-0.36-.13a2.781,2.781,0,0,0-2.69.66l-1.72,1.81a3.3,3.3,0,0,0-.5,1.23,21.793,21.793,0,0,0,5.94,15.27,19.89,19.89,0,0,0,14.55,6.22,3.149,3.149,0,0,0,1.23-.52l1.72-1.8A3.126,3.126,0,0,0,1386.49,4630.02Z" transform="translate(-1353 -4600)"/>
</svg>
