<svg xmlns="http://www.w3.org/2000/svg" xmlns:xlink="http://www.w3.org/1999/xlink" width="60" height="72" viewBox="0 0 60 72">
  <metadata><?xpacket begin="﻿" id="W5M0MpCehiHzreSzNTczkc9d"?>
<x:xmpmeta xmlns:x="adobe:ns:meta/" x:xmptk="Adobe XMP Core 5.6-c142 79.160924, 2017/07/13-01:06:39        ">
   <rdf:RDF xmlns:rdf="http://www.w3.org/1999/02/22-rdf-syntax-ns#">
      <rdf:Description rdf:about=""/>
   </rdf:RDF>
</x:xmpmeta>
                                                                                                    
                                                                                                    
                                                                                                    
                                                                                                    
                                                                                                    
                                                                                                    
                                                                                                    
                                                                                                    
                                                                                                    
                                                                                                    
                                                                                                    
                                                                                                    
                                                                                                    
                                                                                                    
                                                                                                    
                                                                                                    
                                                                                                    
                                                                                                    
                                                                                                    
                                                                                                    
                           
<?xpacket end="w"?></metadata>
<defs>
    <style>
      .cls-1 {
        fill-rule: evenodd;
        filter: url(#filter);
      }
    </style>
    <filter id="filter" x="1351" y="1421" width="60" height="72" filterUnits="userSpaceOnUse">
      <feFlood result="flood" flood-color="#fff"/>
      <feComposite result="composite" operator="in" in2="SourceGraphic"/>
      <feBlend result="blend" in2="SourceGraphic"/>
    </filter>
  </defs>
  <path id="Forma_1" data-name="Forma 1" class="cls-1" d="M1410.91,1485.09l-9.56-23.01a1.15,1.15,0,0,0-1.51-.62,1.136,1.136,0,0,0-.62,1.5l8.64,20.8-7.88-2.28a1.166,1.166,0,0,0-1.33.55l-3.97,7.17-9.27-22.32a23.159,23.159,0,1,0-27.64-22.73,22.965,22.965,0,0,0,4.6,13.81l-11.28,27.13a1.149,1.149,0,0,0,1.38,1.55l9.31-2.69,4.67,8.46a1.172,1.172,0,0,0,1.01.59h0.07a1.163,1.163,0,0,0,1-.71l8.93-21.5a1.136,1.136,0,0,0-.62-1.5,1.158,1.158,0,0,0-1.51.62l-8.02,19.29-3.96-7.17a1.166,1.166,0,0,0-1.33-.55l-7.88,2.28,9.9-23.81a23.191,23.191,0,0,0,16.96,7.35c0.69,0,1.37-.03,2.05-0.09l10.42,25.08a1.163,1.163,0,0,0,1,.71h0.07a1.172,1.172,0,0,0,1.01-.59l4.67-8.46,9.31,2.69A1.149,1.149,0,0,0,1410.91,1485.09Zm-50.83-40.94A20.92,20.92,0,1,1,1381,1465,20.9,20.9,0,0,1,1360.08,1444.15Zm34.24-4.31a1.141,1.141,0,0,0-.91-0.78l-7.75-1.3-3.64-6.95a1.149,1.149,0,0,0-2.04,0l-3.64,6.95-7.76,1.3a1.142,1.142,0,0,0-.9.78,1.159,1.159,0,0,0,.27,1.16l5.51,5.59-1.16,7.75a1.159,1.159,0,0,0,1.66,1.2l7.04-3.49,7.04,3.49a1.156,1.156,0,0,0,.51.12,1.127,1.127,0,0,0,.68-0.22,1.149,1.149,0,0,0,.47-1.1l-1.16-7.75,5.51-5.59A1.159,1.159,0,0,0,1394.32,1439.84Zm-7.83,5.55a1.169,1.169,0,0,0-.32.97l0.92,6.14-5.58-2.76a1.065,1.065,0,0,0-1.02,0l-5.58,2.76,0.92-6.14a1.169,1.169,0,0,0-.32-0.97l-4.36-4.43,6.14-1.03a1.146,1.146,0,0,0,.83-0.6l2.88-5.5,2.88,5.5a1.146,1.146,0,0,0,.83.6l6.14,1.03Zm11.97-.08a1.143,1.143,0,0,0-1.29.99,16.26,16.26,0,1,1,0-4.3,1.15,1.15,0,1,0,2.28-.3,18.513,18.513,0,1,0,.01,4.9A1.157,1.157,0,0,0,1398.46,1445.31Z" transform="translate(-1351 -1421)"/>
</svg>
