<svg xmlns="http://www.w3.org/2000/svg" xmlns:xlink="http://www.w3.org/1999/xlink" width="60" height="54" viewBox="0 0 60 54">
  <metadata><?xpacket begin="﻿" id="W5M0MpCehiHzreSzNTczkc9d"?>
<x:xmpmeta xmlns:x="adobe:ns:meta/" x:xmptk="Adobe XMP Core 5.6-c142 79.160924, 2017/07/13-01:06:39        ">
   <rdf:RDF xmlns:rdf="http://www.w3.org/1999/02/22-rdf-syntax-ns#">
      <rdf:Description rdf:about=""/>
   </rdf:RDF>
</x:xmpmeta>
                                                                                                    
                                                                                                    
                                                                                                    
                                                                                                    
                                                                                                    
                                                                                                    
                                                                                                    
                                                                                                    
                                                                                                    
                                                                                                    
                                                                                                    
                                                                                                    
                                                                                                    
                                                                                                    
                                                                                                    
                                                                                                    
                                                                                                    
                                                                                                    
                                                                                                    
                                                                                                    
                           
<?xpacket end="w"?></metadata>
<defs>
    <style>
      .cls-1 {
        fill-rule: evenodd;
        filter: url(#filter);
      }
    </style>
    <filter id="filter" x="915" y="1433" width="60" height="54" filterUnits="userSpaceOnUse">
      <feFlood result="flood" flood-color="#fff"/>
      <feComposite result="composite" operator="in" in2="SourceGraphic"/>
      <feBlend result="blend" in2="SourceGraphic"/>
    </filter>
  </defs>
  <path id="Forma_1" data-name="Forma 1" class="cls-1" d="M972.363,1455.55h-0.878v-12.17a5.6,5.6,0,0,0-5.567-5.63H941.78l-16.284-4.72h-0.029a0.035,0.035,0,0,0-.029-0.01c-0.015,0-.03-0.01-0.045-0.01h-0.041a0.084,0.084,0,0,0-.048-0.01h-0.123c-0.017,0-.034.01-0.05,0.01H925.1a0.094,0.094,0,0,1-.051.01,0.038,0.038,0,0,1-.031.01c-0.017.01-.034,0.01-0.051,0.02s-0.018.01-.028,0.01-0.034.01-.05,0.02a0.03,0.03,0,0,1-.026.01l-0.049.03c-0.008.01-.016,0.01-0.025,0.02l-0.046.03a0.041,0.041,0,0,0-.023.02l-0.042.03a0.041,0.041,0,0,1-.023.02c-0.013.01-.026,0.03-0.038,0.04l-0.022.03-0.033.03-0.021.03a0.194,0.194,0,0,1-.027.04,0.144,0.144,0,0,1-.021.04c-0.007.01-.015,0.03-0.021,0.04s-0.013.03-.019,0.04-0.011.03-.016,0.04-0.01.03-.015,0.05-0.007.01-.01,0.02,0,0.01,0,.02,0,0.01,0,.01l-1,4.08h-2.83a5.6,5.6,0,0,0-5.566,5.61c0,0.01,0,.02,0,0.02v30.86a0.879,0.879,0,1,0,1.758,0v-26.75a5.5,5.5,0,0,0,3.809,1.53h45.355a3.836,3.836,0,0,1,3.8,3.86v6.23H959.98a0.239,0.239,0,0,1-.083.01,0.011,0.011,0,0,1-.012.01c-0.023,0-.045.01-0.068,0.01,0,0-.01.01-0.015,0.01a0.134,0.134,0,0,0-.058.02,0.022,0.022,0,0,0-.022.01,0.1,0.1,0,0,0-.048.02c-0.01,0-.021.01-0.031,0.01l-0.035.03a0.073,0.073,0,0,0-.039.02,0.043,0.043,0,0,0-.024.02l-0.045.03c-0.006.01-.012,0.01-0.018,0.02a0.149,0.149,0,0,0-.045.04c-0.009.01-.016,0.02-0.024,0.03s-0.024.02-.034,0.03a0.582,0.582,0,0,1-.051.07,0.034,0.034,0,0,0,0,.01l-4.688,7.12a1.111,1.111,0,0,0-.082.15,0.451,0.451,0,0,0-.022.07,0.053,0.053,0,0,1-.006.01c-0.006.03-.012,0.05-0.016,0.07a0.142,0.142,0,0,0,0,.02q-0.006.03-.009,0.06c0,0.01,0,.01,0,0.02s0,0.04,0,.05,0,0.03,0,.04,0,0.02,0,.04,0,0.03,0,.05a0.142,0.142,0,0,0,0,.02q0,0.03.009,0.06a0.142,0.142,0,0,0,0,.02c0,0.02.01,0.04,0.016,0.07a0.041,0.041,0,0,1,.007.02q0.009,0.03.021,0.06a1.019,1.019,0,0,0,.083.15l4.687,7.12v0.01c0.018,0.02.039,0.05,0.061,0.08,0.007,0.01.015,0.01,0.022,0.02s0.03,0.03.046,0.05l0.029,0.03a0.2,0.2,0,0,1,.053.04,0.043,0.043,0,0,1,.024.02,0.384,0.384,0,0,1,.082.05,0.023,0.023,0,0,1,.022.01l0.069,0.03a0.031,0.031,0,0,1,.027.01c0.023,0.01.046,0.01,0.069,0.02a0.033,0.033,0,0,1,.028.01c0.024,0,.048.01,0.073,0.01h0.026a0.286,0.286,0,0,0,.092.01h9.676v6.23a3.837,3.837,0,0,1-3.808,3.86H920.567a3.837,3.837,0,0,1-3.808-3.86v-3.56a0.879,0.879,0,1,0-1.758,0v3.56c0,0.01,0,.02,0,0.03a5.6,5.6,0,0,0,5.565,5.61h45.352a5.61,5.61,0,0,0,5.566-5.64h0v-6.23h0.879a2.658,2.658,0,0,0,2.636-2.67v-14.24A2.658,2.658,0,0,0,972.363,1455.55ZM925.887,1435l15.508,4.49h0l10.394,3H924.037Zm43.84,13.77a5.5,5.5,0,0,0-3.809-1.53H920.567a3.855,3.855,0,0,1,0-7.71h2.39l-0.732,2.96h-1.658a0.89,0.89,0,0,0,0,1.78h44.179a0.89,0.89,0,0,0,0-1.78H958.19l-10.258-2.96h17.986a3.836,3.836,0,0,1,3.809,3.85v5.39Zm3.515,23.69h0a0.886,0.886,0,0,1-.879.89H960.528l-4.1-6.23,4.1-6.23H972.4a2.616,2.616,0,0,0,.842-0.16v11.73h0Zm-0.879-13.35h-0.878v-1.78h0.878A0.89,0.89,0,0,1,972.363,1459.11Zm-8.789,4.75a3.26,3.26,0,1,0,3.223,3.26A3.244,3.244,0,0,0,963.574,1463.86Zm0,4.74a1.48,1.48,0,1,1,1.465-1.48A1.472,1.472,0,0,1,963.574,1468.6Z" transform="translate(-915 -1433)"/>
</svg>
