<svg xmlns="http://www.w3.org/2000/svg" xmlns:xlink="http://www.w3.org/1999/xlink" width="60" height="60" viewBox="0 0 60 60">
  <metadata><?xpacket begin="﻿" id="W5M0MpCehiHzreSzNTczkc9d"?>
<x:xmpmeta xmlns:x="adobe:ns:meta/" x:xmptk="Adobe XMP Core 5.6-c142 79.160924, 2017/07/13-01:06:39        ">
   <rdf:RDF xmlns:rdf="http://www.w3.org/1999/02/22-rdf-syntax-ns#">
      <rdf:Description rdf:about=""/>
   </rdf:RDF>
</x:xmpmeta>
                                                                                                    
                                                                                                    
                                                                                                    
                                                                                                    
                                                                                                    
                                                                                                    
                                                                                                    
                                                                                                    
                                                                                                    
                                                                                                    
                                                                                                    
                                                                                                    
                                                                                                    
                                                                                                    
                                                                                                    
                                                                                                    
                                                                                                    
                                                                                                    
                                                                                                    
                                                                                                    
                           
<?xpacket end="w"?></metadata>
<defs>
    <style>
      .cls-1 {
        fill-rule: evenodd;
        filter: url(#filter);
      }
    </style>
    <filter id="filter" x="518" y="1433" width="60" height="60" filterUnits="userSpaceOnUse">
      <feFlood result="flood" flood-color="#fff"/>
      <feComposite result="composite" operator="in" in2="SourceGraphic"/>
      <feBlend result="blend" in2="SourceGraphic"/>
    </filter>
  </defs>
  <path id="Forma_1" data-name="Forma 1" class="cls-1" d="M525.5,1442.37v-7.5a1.875,1.875,0,0,1,3.75,0v7.5A1.875,1.875,0,1,1,525.5,1442.37Zm31.875,1.88a1.876,1.876,0,0,0,1.875-1.88v-7.5a1.875,1.875,0,0,0-3.75,0v7.5A1.876,1.876,0,0,0,557.375,1444.25ZM578,1478a15,15,0,1,1-15-15A15,15,0,0,1,578,1478Zm-3.75,0A11.25,11.25,0,1,0,563,1489.25,11.265,11.265,0,0,0,574.25,1478ZM533,1455.5h-7.5v7.5H533v-7.5Zm-7.5,18.75H533v-7.5h-7.5v7.5ZM536.75,1463h7.5v-7.5h-7.5v7.5Zm0,11.25h7.5v-7.5h-7.5v7.5Zm-15,3.38v-25.88H563v7.5h3.75v-14.63a4.094,4.094,0,0,0-4.061-4.12h-1.564v1.87a3.75,3.75,0,0,1-7.5,0v-1.87h-22.5v1.87a3.75,3.75,0,0,1-7.5,0v-1.87h-1.562a4.1,4.1,0,0,0-4.063,4.12v33.01a4.1,4.1,0,0,0,4.063,4.12H544.25V1478H522.063A0.357,0.357,0,0,1,521.75,1477.63ZM555.5,1463v-7.5H548v7.5h7.5Zm13.125,15H563v-5.63a1.875,1.875,0,0,0-3.75,0v7.5a1.876,1.876,0,0,0,1.875,1.88h7.5A1.875,1.875,0,1,0,568.625,1478Z" transform="translate(-518 -1433)"/>
</svg>
