<svg xmlns="http://www.w3.org/2000/svg" xmlns:xlink="http://www.w3.org/1999/xlink" width="16" height="11.781" viewBox="0 0 16 11.781">
  <metadata><?xpacket begin="﻿" id="W5M0MpCehiHzreSzNTczkc9d"?>
<x:xmpmeta xmlns:x="adobe:ns:meta/" x:xmptk="Adobe XMP Core 5.6-c142 79.160924, 2017/07/13-01:06:39        ">
   <rdf:RDF xmlns:rdf="http://www.w3.org/1999/02/22-rdf-syntax-ns#">
      <rdf:Description rdf:about=""/>
   </rdf:RDF>
</x:xmpmeta>
                                                                                                    
                                                                                                    
                                                                                                    
                                                                                                    
                                                                                                    
                                                                                                    
                                                                                                    
                                                                                                    
                                                                                                    
                                                                                                    
                                                                                                    
                                                                                                    
                                                                                                    
                                                                                                    
                                                                                                    
                                                                                                    
                                                                                                    
                                                                                                    
                                                                                                    
                                                                                                    
                           
<?xpacket end="w"?></metadata>
<defs>
    <style>
      .cls-1 {
        fill-rule: evenodd;
        filter: url(#filter);
      }
    </style>
    <filter id="filter" x="1407.72" y="125.313" width="16" height="11.781" filterUnits="userSpaceOnUse">
      <feFlood result="flood" flood-color="#b71010"/>
      <feComposite result="composite" operator="in" in2="SourceGraphic"/>
      <feBlend result="blend" in2="SourceGraphic"/>
    </filter>
  </defs>
  <path id="mail" class="cls-1" d="M1423.72,135.139a2,2,0,0,1-.25.945l-5.06-5.554,5-4.3a1.878,1.878,0,0,1,.31,1.044v7.861Zm-8-3.6,6.96-5.978a2.027,2.027,0,0,0-.96-0.248h-12a1.958,1.958,0,0,0-.95.248Zm1.94-.362-1.61,1.384a0.493,0.493,0,0,1-.33.121,0.512,0.512,0,0,1-.33-0.121l-1.61-1.384-5.11,5.625a1.964,1.964,0,0,0,1.05.3h12a2.026,2.026,0,0,0,1.06-.3Zm-9.63-4.943a1.962,1.962,0,0,0-.31,1.044v7.861a1.9,1.9,0,0,0,.26.945l5.05-5.555Z" transform="translate(-1407.72 -125.313)"/>
</svg>
