<svg xmlns="http://www.w3.org/2000/svg" xmlns:xlink="http://www.w3.org/1999/xlink" width="34" height="25.03" viewBox="0 0 34 25.03">
  <metadata><?xpacket begin="﻿" id="W5M0MpCehiHzreSzNTczkc9d"?>
<x:xmpmeta xmlns:x="adobe:ns:meta/" x:xmptk="Adobe XMP Core 5.6-c142 79.160924, 2017/07/13-01:06:39        ">
   <rdf:RDF xmlns:rdf="http://www.w3.org/1999/02/22-rdf-syntax-ns#">
      <rdf:Description rdf:about=""/>
   </rdf:RDF>
</x:xmpmeta>
                                                                                                    
                                                                                                    
                                                                                                    
                                                                                                    
                                                                                                    
                                                                                                    
                                                                                                    
                                                                                                    
                                                                                                    
                                                                                                    
                                                                                                    
                                                                                                    
                                                                                                    
                                                                                                    
                                                                                                    
                                                                                                    
                                                                                                    
                                                                                                    
                                                                                                    
                                                                                                    
                           
<?xpacket end="w"?></metadata>
<defs>
    <style>
      .cls-1 {
        fill-rule: evenodd;
        filter: url(#filter);
      }
    </style>
    <filter id="filter" x="390" y="1066" width="34" height="25.03" filterUnits="userSpaceOnUse">
      <feFlood result="flood" flood-color="#fff"/>
      <feComposite result="composite" operator="in" in2="SourceGraphic"/>
      <feBlend result="blend" in2="SourceGraphic"/>
    </filter>
  </defs>
  <path id="mail_копия_2" data-name="mail копия 2" class="cls-1" d="M424.01,1086.85a4.091,4.091,0,0,1-.546,2.01l-10.736-11.79,10.62-9.11a4.049,4.049,0,0,1,.662,2.21v16.68Zm-17-7.64,14.777-12.68a4.212,4.212,0,0,0-2.025-.53h-25.5a4.2,4.2,0,0,0-2.025.53Zm4.12-.77-3.421,2.94a1.071,1.071,0,0,1-1.4,0l-3.421-2.94-10.873,11.94a4.27,4.27,0,0,0,2.242.64h25.5a4.27,4.27,0,0,0,2.241-.64Zm-20.461-10.48a4.049,4.049,0,0,0-.662,2.21v16.68a4.091,4.091,0,0,0,.546,2.01l10.735-11.79Z" transform="translate(-390 -1066)"/>
</svg>
